<svg width="60" height="32" viewBox="0 0 60 32" fill="none" xmlns="http://www.w3.org/2000/svg">
<g id="Frame 1973340788">
<g id="Group 1943243391">
<path id="Vector" d="M43.8593 11.1444C43.7682 11.0903 43.6622 11.0604 43.5469 11.065L42.0657 11.1134C41.7694 11.1111 41.5331 10.8877 41.4997 10.608L41.8674 8.71773L41.9158 8.44951C41.9412 8.30676 41.9124 8.16977 41.8455 8.05695C41.7429 7.88312 41.5516 7.76455 41.3303 7.7726L38.6479 7.85894C38.2249 7.87276 37.8525 8.11681 37.6623 8.47713C37.6093 8.57844 37.569 8.6878 37.5482 8.80407L37.0917 11.3701C37.0272 11.712 36.9477 12.1287 36.9477 12.1287C36.9477 12.1287 36.4993 14.6429 36.49 14.7235L36.105 16.9292L35.7419 19.0094C35.682 19.311 35.5114 20.5992 35.5252 20.8502C35.539 21.0816 35.5264 21.0528 35.539 21.2462C35.539 21.2462 35.554 21.4753 35.584 21.679C35.7431 22.7588 36.4359 23.3529 36.4359 23.3529C36.867 23.6902 37.441 23.8882 38.1522 23.9538C38.3978 23.9768 38.6583 23.9837 38.9349 23.9745H38.9465V23.9975H38.958L39.0271 23.9952C39.5332 23.9561 40.3239 23.803 41.2853 23.2078C41.6 22.9442 42.1256 22.4319 42.5026 21.6134C42.7827 20.9941 42.868 20.4265 42.8899 20.057C42.9083 19.9292 42.7907 19.8302 42.6651 19.8797C42.2893 20.042 41.7775 20.2654 41.5158 20.3551C41.1735 20.4588 40.8634 20.514 40.5752 20.5244C40.3793 20.5313 40.2167 20.4783 40.075 20.3793C39.9332 20.2573 39.8583 20.0869 39.8502 19.8452C39.8502 19.836 39.8502 19.8244 39.8502 19.8141C39.8479 19.7001 39.8548 19.5401 39.8802 19.349C39.9193 19.1176 39.9574 18.8977 39.9966 18.6882L40.1614 17.7983L40.5268 15.8217H40.5337C40.5464 15.7423 40.5579 15.6629 40.5706 15.5835L40.679 14.9963C40.747 14.8306 40.8876 14.7062 41.0605 14.659L43.1481 14.5911C43.419 14.5819 43.6472 14.3862 43.6968 14.1191L44.1313 11.7442C44.1417 11.6855 44.1498 11.5865 44.1152 11.4737C44.1094 11.4564 44.046 11.2573 43.8582 11.1456L43.8593 11.1444Z" fill="white"/>
<path id="Vector_2" d="M34.7934 11.0489C34.609 10.5827 34.3393 10.288 34.1295 10.0554C33.6995 9.60186 33.2822 9.34399 33.1589 9.27032C32.1019 8.64407 31.0206 8.74307 30.1238 8.80408C29.0299 8.89042 28.5515 9.1598 28.404 9.24614C28.0236 9.46717 27.7769 9.73655 27.6178 9.9334L27.6697 9.65136C27.7388 9.27492 27.4495 8.92726 27.0657 8.92726H24.8167V8.94453C24.4628 8.93647 24.1159 8.92956 23.8046 8.92381C23.5049 8.91805 23.2456 9.12987 23.1914 9.42343C22.7787 11.6464 22.358 13.8705 21.9465 16.105C21.86 16.5585 21.7009 17.3563 21.4923 18.3624C21.3448 19.1107 21.2583 19.4918 21.0255 19.798C20.9759 19.859 20.2635 20.7546 19.2445 20.5958C19.1949 20.5958 18.4342 20.4611 18.0653 19.8233C17.8071 19.3697 17.8682 18.8908 17.8935 18.6825C18.0342 17.6648 18.5656 14.3632 19.3586 9.84937C19.4209 9.4971 19.1488 9.17362 18.7915 9.17362H15.791C15.4936 9.17362 15.2388 9.38659 15.1858 9.68014L13.8752 17.0386C13.8014 17.5048 13.7403 17.9952 13.6781 18.5109C13.6285 18.9772 13.5916 19.2592 13.5801 19.6518C13.5559 20.1422 13.5801 20.5601 13.5801 20.8421C13.6043 21.0136 13.6539 21.2715 13.7645 21.5536C13.949 22.0198 14.2187 22.3145 14.4285 22.547C14.8585 23.0006 15.2757 23.2585 15.3991 23.3321C16.6279 24.0678 17.942 23.8721 18.4342 23.7984C18.8399 23.7374 19.3552 23.6637 19.9454 23.3321C20.5102 23.0133 20.8664 22.608 21.0635 22.3387L20.9309 22.912C20.8422 23.2965 21.1338 23.6637 21.5292 23.6637H23.7424V23.6591C24.0963 23.6671 24.4432 23.6741 24.7545 23.6798C25.0542 23.6856 25.3135 23.4737 25.3677 23.1802C25.7804 20.9572 26.2023 18.7331 26.6126 16.4987C26.6991 16.0451 26.8582 15.2473 27.0668 14.2412C27.2144 13.4929 27.2997 13.1118 27.5337 12.8056C27.5832 12.7446 28.2956 11.849 29.3146 12.0079C29.3642 12.0079 30.125 12.1425 30.4938 12.7803C30.752 13.2339 30.6909 13.7128 30.6656 13.9211C30.5249 14.9388 29.9935 18.2404 29.2005 22.7542C29.1382 23.1065 29.4103 23.43 29.7676 23.43H32.7681C33.0655 23.43 33.3203 23.217 33.3733 22.9235L34.6839 15.565C34.7577 15.0988 34.8188 14.6084 34.881 14.0927C34.9306 13.6264 34.9675 13.3444 34.979 12.9518C35.0032 12.4614 34.979 12.0435 34.979 11.7615C34.9548 11.59 34.9052 11.3321 34.7946 11.0501L34.7934 11.0489ZM23.4531 16.0129C23.4358 16.0854 23.4162 16.1648 23.3943 16.2523C23.4162 16.1648 23.4358 16.0842 23.4531 16.0129ZM23.5568 15.565C23.5568 15.565 23.5499 15.5961 23.5372 15.6537C23.5499 15.595 23.5568 15.565 23.5568 15.565Z" fill="white"/>
<path id="Vector_3" d="M56.5416 12.0366C56.1266 11.2422 55.5272 10.6436 54.7434 10.2292C53.9711 9.81476 52.9221 9.60754 51.9192 9.60754C50.9164 9.60754 50.0057 9.76871 49.1873 10.0795C48.3689 10.3904 47.6427 10.8278 47.0202 11.3919C46.4208 11.956 45.9136 12.6122 45.4986 13.3719C45.0952 14.1087 44.7724 14.9145 44.5649 15.7895C44.3459 16.6644 44.2422 17.3896 44.2422 18.5063C44.2422 19.6229 44.4381 20.5784 44.8531 21.3727C45.2681 22.1556 45.856 22.7427 46.6283 23.1571C47.4121 23.5715 48.3574 23.7787 49.4755 23.7787V23.7902C50.4899 23.7902 51.4005 23.6291 52.2074 23.3183C53.0374 23.0074 53.7405 22.57 54.3515 22.0059C54.9739 21.4418 55.4811 20.7856 55.8961 20.0489C56.2995 19.2891 56.6223 18.4717 56.8298 17.5968C57.0488 16.7219 57.1525 15.9967 57.1525 14.88C57.1525 13.7634 56.9566 12.8079 56.5416 12.0366ZM52.2881 16.342C52.2074 16.8716 52.0921 17.3666 51.9423 17.8501C51.804 18.3221 51.6426 18.748 51.4466 19.1049C51.2507 19.4618 51.0201 19.7496 50.7781 19.9683C50.536 20.164 50.2709 20.2676 49.9942 20.2676C49.683 20.2676 49.4409 20.141 49.2565 19.8762C49.0836 19.5999 48.9914 19.22 48.9914 18.6674C48.9914 18.1149 49.0259 17.5853 49.0951 17.0558C49.1758 16.5262 49.2911 16.0312 49.4409 15.5477C49.5908 15.0757 49.7637 14.6498 49.9596 14.2929C50.1556 13.936 50.3631 13.6482 50.5936 13.4525C50.8357 13.2338 51.1585 13.1302 51.3775 13.1302C51.5965 13.1302 51.7694 13.1993 51.9192 13.3259C52.0806 13.441 52.2074 13.6137 52.2881 13.8439C52.3688 14.0742 52.4149 14.1778 52.4149 14.7304C52.4149 15.2829 52.3688 15.8125 52.2881 16.342Z" fill="white"/>
<path id="Vector_4" d="M13.1913 7.60228H6.83526C6.71998 7.60343 6.31308 7.62415 5.95228 7.93497C5.65718 8.18939 5.5569 8.49676 5.52347 8.61878C5.19034 10.7531 4.88833 12.6295 4.61974 14.2619C3.84858 18.9553 3.34946 21.6365 3.15234 22.6449C3.16502 22.828 3.1777 23.0006 3.19154 23.1825V23.186H3.19269C3.25148 23.2516 3.32986 23.3276 3.43245 23.3967C3.48894 23.4358 3.54657 23.468 3.60075 23.4945C3.7091 23.5187 3.814 23.5429 3.92235 23.567C4.70735 23.5728 5.49119 23.5797 6.27619 23.5854C6.34305 23.5854 6.40875 23.5797 6.4733 23.5624C6.51711 23.5509 6.56552 23.5325 6.61624 23.5072C6.64621 23.4922 6.67618 23.4761 6.70615 23.4554C6.92747 23.3057 7.00125 23.087 7.02084 23.0191C7.33092 21.3717 7.641 19.7243 7.95223 18.0781C8.00295 17.8065 8.24156 17.6085 8.51821 17.6085H11.498C11.8761 17.6085 12.2023 17.3448 12.283 16.9764L12.6968 15.0643C12.8028 14.5762 12.4305 14.1157 11.9302 14.1157H9.52799C9.16258 14.1157 8.88939 13.7807 8.96316 13.4239L9.32165 11.6948C9.39658 11.331 9.71818 11.0697 10.0894 11.0697H12.7694C13.1475 11.0697 13.4749 10.806 13.5544 10.4365L13.9602 8.54741C14.0651 8.0593 13.6927 7.59998 13.1936 7.59998L13.1913 7.60228Z" fill="white"/>
</g>
</g>
</svg>
