<svg width="64" height="64" viewBox="0 0 64 64" fill="none" xmlns="http://www.w3.org/2000/svg">
<g id="Group 48095482">
<g id="Rectangle 846" filter="url(#filter0_d_1929_16455)">
<rect x="8" y="6" width="48" height="48" rx="24" fill="#5F259F"/>
<rect x="8.18182" y="6.18182" width="47.6364" height="47.6364" rx="23.8182" stroke="#D6D6DC" stroke-width="0.363636"/>
</g>
<g id="Group 1943243360">
<path id="ellipse30" d="M31.9981 43.0896C39.228 43.0896 45.0891 37.2286 45.0891 29.9987C45.0891 22.7688 39.2281 16.9078 31.9981 16.9078C24.7682 16.9078 18.9072 22.7688 18.9072 29.9987C18.9072 37.2286 24.7682 43.0896 31.9981 43.0896Z" fill="#5F259F"/>
<path id="path36" d="M40.3861 25.3912C40.3861 24.6737 39.7711 24.0587 39.0536 24.0587H36.5936L30.956 17.6011C30.4435 16.9861 29.6235 16.7811 28.8035 16.9861L26.856 17.6011C26.5485 17.7036 26.446 18.1136 26.651 18.3186L32.801 24.1612H23.4734C23.1659 24.1612 22.9609 24.3662 22.9609 24.6737V25.6987C22.9609 26.4162 23.5759 27.0312 24.2935 27.0312H25.7285V31.9513C25.7285 35.6413 27.676 37.7938 30.956 37.7938C31.981 37.7938 32.801 37.6913 33.826 37.2813V40.5613C33.826 41.4839 34.5436 42.2014 35.4661 42.2014H36.9011C37.2086 42.2014 37.5161 41.8939 37.5161 41.5864V26.9287H39.8736C40.1811 26.9287 40.3861 26.7237 40.3861 26.4162V25.3912ZM33.826 34.2063C33.211 34.5138 32.391 34.6163 31.776 34.6163C30.136 34.6163 29.316 33.7963 29.316 31.9513V27.0312H33.826V34.2063Z" fill="white"/>
</g>
</g>
<defs>
<filter id="filter0_d_1929_16455" x="0.727273" y="0.909091" width="62.5455" height="62.5455" filterUnits="userSpaceOnUse" color-interpolation-filters="sRGB">
<feFlood flood-opacity="0" result="BackgroundImageFix"/>
<feColorMatrix in="SourceAlpha" type="matrix" values="0 0 0 0 0 0 0 0 0 0 0 0 0 0 0 0 0 0 127 0" result="hardAlpha"/>
<feOffset dy="2.18182"/>
<feGaussianBlur stdDeviation="3.63636"/>
<feColorMatrix type="matrix" values="0 0 0 0 0 0 0 0 0 0 0 0 0 0 0 0 0 0 0.1 0"/>
<feBlend mode="normal" in2="BackgroundImageFix" result="effect1_dropShadow_1929_16455"/>
<feBlend mode="normal" in="SourceGraphic" in2="effect1_dropShadow_1929_16455" result="shape"/>
</filter>
</defs>
</svg>
